{
  "source": "C:\\Users\\Peter\\Desktop\\stuff\\MIUN\\quantitative_research\\video_compression\\videos\\UVG\\YachtRide_1920x1080_120fps_420_8bit_YUV.y4m",
  "output": "C:\\Users\\Peter\\Desktop\\stuff\\MIUN\\quantitative_research\\video_compression\\compressed_videos\\UVG\\h264\\3\\YachtRide_1920x1080_120fps_420_8bit_YUV_h264.mp4",
  "codec": "h264",
  "ok": "[yuv4mpegpipe @ 000001f889275e00] Stream #0: not enough frames to estimate rate; consider increasing probesize\nInput #0, yuv4mpegpipe, from 'C:\\Users\\Peter\\Desktop\\stuff\\MIUN\\quantitative_research\\video_compression\\videos\\UVG\\YachtRide_1920x1080_120fps_420_8bit_YUV.y4m':\n  Duration: 00:00:05.00, start: 0.000000, bitrate: 2985989 kb/s\n  Stream #0:0: Video: rawvideo (I420 / 0x30323449), yuv420p(progressive), 1920x1080, 120 fps, 120 tbr, 120 tbn\n[out#0/mp4 @ 000001f88927a600] Codec AVOption b:a (set bitrate (in bits/s)) has not been used for any stream. The most likely reason is either wrong type (e.g. a video option with no video streams) or that it is a private option of some decoder which was not actually used for any stream.\nStream mapping:\n  Stream #0:0 -> #0:0 (rawvideo (native) -> h264 (libx264))\nPress [q] to stop, [?] for help\n[libx264 @ 000001f88927ca80] using cpu capabilities: MMX2 SSE2Fast SSSE3 SSE4.2 AVX FMA3 BMI2 AVX2\n[libx264 @ 000001f88927ca80] profile High, level 5.1, 4:2:0, 8-bit\n[libx264 @ 000001f88927ca80] 264 - core 165 r3222 b35605a - H.264/MPEG-4 AVC codec - Copyleft 2003-2025 - http://www.videolan.org/x264.html - options: cabac=1 ref=5 deblock=1:0:0 analyse=0x3:0x113 me=hex subme=8 psy=1 psy_rd=1.00:0.00 mixed_ref=1 me_range=16 chroma_me=1 trellis=2 8x8dct=1 cqm=0 deadzone=21,11 fast_pskip=1 chroma_qp_offset=-2 threads=18 lookahead_threads=3 sliced_threads=0 nr=0 decimate=1 interlaced=0 bluray_compat=0 constrained_intra=0 bframes=3 b_pyramid=2 b_adapt=1 b_bias=0 direct=3 weightb=1 open_gop=0 weightp=2 keyint=250 keyint_min=25 scenecut=40 intra_refresh=0 rc_lookahead=50 rc=cbr mbtree=1 bitrate=3000 ratetol=1.0 qcomp=0.60 qpmin=0 qpmax=69 qpstep=4 vbv_maxrate=3000 vbv_bufsize=3000 nal_hrd=none filler=0 ip_ratio=1.40 aq=1:1.00\nOutput #0, mp4, to 'C:\\Users\\Peter\\Desktop\\stuff\\MIUN\\quantitative_research\\video_compression\\compressed_videos\\UVG\\h264\\3\\YachtRide_1920x1080_120fps_420_8bit_YUV_h264.mp4':\n  Metadata:\n    encoder         : Lavf62.3.100\n  Stream #0:0: Video: h264 (avc1 / 0x31637661), yuv420p(tv, progressive), 1920x1080, q=2-31, 3000 kb/s, 120 fps, 15360 tbn\n    Metadata:\n      encoder         : Lavc62.11.100 libx264\n    Side data:\n      cpb: bitrate max/min/avg: 3000000/0/3000000 buffer size: 3000000 vbv_delay: N/A\nframe=    0 fps=0.0 q=0.0 size=       0KiB time=N/A bitrate=N/A speed=N/A elapsed=0:00:00.50    \nframe=    0 fps=0.0 q=0.0 size=       0KiB time=N/A bitrate=N/A speed=N/A elapsed=0:00:01.02    \nframe=    0 fps=0.0 q=0.0 size=       0KiB time=N/A bitrate=N/A speed=N/A elapsed=0:00:01.53    \nframe=   16 fps=7.8 q=46.0 size=       0KiB time=00:00:00.11 bitrate=   3.3kbits/s speed=0.0569x elapsed=0:00:02.05    \nframe=   32 fps= 12 q=44.0 size=       0KiB time=00:00:00.25 bitrate=   1.5kbits/s speed=0.0971x elapsed=0:00:02.57    \nframe=   48 fps= 16 q=45.0 size=       0KiB time=00:00:00.38 bitrate=   1.0kbits/s speed=0.124x elapsed=0:00:03.08    \nframe=   68 fps= 19 q=45.0 size=       0KiB time=00:00:00.55 bitrate=   0.7kbits/s speed=0.152x elapsed=0:00:03.60    \nframe=   88 fps= 21 q=45.0 size=       0KiB time=00:00:00.71 bitrate=   0.5kbits/s speed=0.174x elapsed=0:00:04.12    \nframe=  107 fps= 23 q=44.0 size=     256KiB time=00:00:00.86 bitrate=2420.2kbits/s speed=0.187x elapsed=0:00:04.64    \nframe=  125 fps= 24 q=45.0 size=     256KiB time=00:00:01.01 bitrate=2063.1kbits/s speed=0.197x elapsed=0:00:05.16    \nframe=  144 fps= 25 q=45.0 size=     256KiB time=00:00:01.18 bitrate=1772.6kbits/s speed=0.208x elapsed=0:00:05.67    \nframe=  164 fps= 26 q=45.0 size=     256KiB time=00:00:01.35 bitrate=1553.7kbits/s speed=0.218x elapsed=0:00:06.19    \nframe=  182 fps= 27 q=45.0 size=     512KiB time=00:00:01.50 bitrate=2796.5kbits/s speed=0.224x elapsed=0:00:06.70    \nframe=  200 fps= 28 q=46.0 size=     512KiB time=00:00:01.65 bitrate=2542.2kbits/s speed=0.228x elapsed=0:00:07.22    \nframe=  216 fps= 28 q=46.0 size=     512KiB time=00:00:01.78 bitrate=2352.2kbits/s speed=0.23x elapsed=0:00:07.74    \nframe=  233 fps= 28 q=46.0 size=     512KiB time=00:00:01.92 bitrate=2179.1kbits/s speed=0.233x elapsed=0:00:08.26    \nframe=  238 fps= 27 q=46.0 size=     512KiB time=00:00:01.96 bitrate=2132.9kbits/s speed=0.224x elapsed=0:00:08.77    \nframe=  258 fps= 28 q=46.0 size=     768KiB time=00:00:02.13 bitrate=2949.3kbits/s speed=0.23x elapsed=0:00:09.28    \nframe=  274 fps= 28 q=46.0 size=     768KiB time=00:00:02.26 bitrate=2775.8kbits/s speed=0.231x elapsed=0:00:09.80    \nframe=  294 fps= 28 q=46.0 size=     768KiB time=00:00:02.43 bitrate=2585.7kbits/s speed=0.236x elapsed=0:00:10.32    \nframe=  314 fps= 29 q=46.0 size=     768KiB time=00:00:02.59 bitrate=2427.7kbits/s speed=0.239x elapsed=0:00:10.84    \nframe=  330 fps= 29 q=46.0 size=    1024KiB time=00:00:02.73 bitrate=3069.1kbits/s speed=0.24x elapsed=0:00:11.38    \nframe=  350 fps= 29 q=46.0 size=    1024KiB time=00:00:02.90 bitrate=2892.8kbits/s speed=0.244x elapsed=0:00:11.89    \nframe=  366 fps= 29 q=46.0 size=    1024KiB time=00:00:03.03 bitrate=2765.6kbits/s speed=0.244x elapsed=0:00:12.41    \nframe=  386 fps= 30 q=46.0 size=    1024KiB time=00:00:03.20 bitrate=2621.6kbits/s speed=0.247x elapsed=0:00:12.93    \nframe=  402 fps= 30 q=46.0 size=    1024KiB time=00:00:03.33 bitrate=2516.7kbits/s speed=0.248x elapsed=0:00:13.44    \nframe=  422 fps= 30 q=46.0 size=    1280KiB time=00:00:03.50 bitrate=2996.0kbits/s speed=0.25x elapsed=0:00:13.97    \nframe=  438 fps= 30 q=46.0 size=    1280KiB time=00:00:03.63 bitrate=2886.1kbits/s speed=0.251x elapsed=0:00:14.49    \nframe=  454 fps= 30 q=46.0 size=    1280KiB time=00:00:03.76 bitrate=2783.9kbits/s speed=0.251x elapsed=0:00:15.00    \nframe=  474 fps= 31 q=46.0 size=    1280KiB time=00:00:03.93 bitrate=2666.0kbits/s speed=0.253x elapsed=0:00:15.52    \nframe=  483 fps= 30 q=46.0 size=    1280KiB time=00:00:04.00 bitrate=2616.1kbits/s speed=0.25x elapsed=0:00:16.04    \nframe=  492 fps= 30 q=46.0 size=    1280KiB time=00:00:04.08 bitrate=2568.0kbits/s speed=0.247x elapsed=0:00:16.55    \nframe=  512 fps= 30 q=46.0 size=    1536KiB time=00:00:04.25 bitrate=2960.8kbits/s speed=0.249x elapsed=0:00:17.06    \nframe=  532 fps= 30 q=46.0 size=    1536KiB time=00:00:04.41 bitrate=2849.0kbits/s speed=0.251x elapsed=0:00:17.58    \nframe=  561 fps= 31 q=46.0 size=    1536KiB time=00:00:04.65 bitrate=2701.2kbits/s speed=0.257x elapsed=0:00:18.12    \nframe=  595 fps= 32 q=-1.0 size=    1792KiB time=00:00:04.94 bitrate=2970.7kbits/s speed=0.265x elapsed=0:00:18.65    \n[mp4 @ 000001f88927b700] Starting second pass: moving the moov atom to the beginning of the file\n[out#0/mp4 @ 000001f88927a600] video:1839KiB audio:0KiB subtitle:0KiB other streams:0KiB global headers:0KiB muxing overhead: 0.427853%\nframe=  600 fps= 32 q=-1.0 Lsize=    1847KiB time=00:00:04.98 bitrate=3036.8kbits/s speed=0.266x elapsed=0:00:18.70    \n[libx264 @ 000001f88927ca80] frame I:3     Avg QP:40.25  size: 19727\n[libx264 @ 000001f88927ca80] frame P:151   Avg QP:43.20  size:  6085\n[libx264 @ 000001f88927ca80] frame B:446   Avg QP:45.68  size:  2029\n[libx264 @ 000001f88927ca80] consecutive B-frames:  0.8%  0.0%  0.5% 98.7%\n[libx264 @ 000001f88927ca80] mb I  I16..4: 42.3% 55.7%  1.9%\n[libx264 @ 000001f88927ca80] mb P  I16..4:  1.7%  1.1%  0.0%  P16..4: 25.9%  1.8%  1.9%  0.0%  0.0%    skip:67.6%\n[libx264 @ 000001f88927ca80] mb B  I16..4:  0.0%  0.0%  0.0%  B16..8: 25.9%  0.3%  0.0%  direct: 0.0%  skip:73.8%  L0:32.2% L1:67.7% BI: 0.1%\n[libx264 @ 000001f88927ca80] 8x8 transform intra:47.0% inter:96.3%\n[libx264 @ 000001f88927ca80] direct mvs  spatial:97.8% temporal:2.2%\n[libx264 @ 000001f88927ca80] coded y,uvDC,uvAC intra: 15.0% 17.0% 1.6% inter: 1.1% 0.8% 0.0%\n[libx264 @ 000001f88927ca80] i16 v,h,dc,p: 17% 61%  5% 17%\n[libx264 @ 000001f88927ca80] i8 v,h,dc,ddl,ddr,vr,hd,vl,hu:  7% 14% 27%  4% 10%  5% 14%  4% 14%\n[libx264 @ 000001f88927ca80] i4 v,h,dc,ddl,ddr,vr,hd,vl,hu:  5% 19% 15%  6% 10%  7% 13%  6% 20%\n[libx264 @ 000001f88927ca80] i8c dc,h,v,p: 61% 34%  4%  1%\n[libx264 @ 000001f88927ca80] Weighted P-Frames: Y:0.0% UV:0.0%\n[libx264 @ 000001f88927ca80] ref P L0: 55.8%  4.6% 24.3%  6.8%  8.5%\n[libx264 @ 000001f88927ca80] ref B L0: 83.5% 12.3%  3.1%  1.1%\n[libx264 @ 000001f88927ca80] ref B L1: 94.9%  5.1%\n[libx264 @ 000001f88927ca80] kb/s:3012.53\n",
  "seconds": 18.879133224487305,
  "probe_out": {}
}